# Blender v2.69 (sub 0) OBJ File: 'cube.blend'
# www.blender.org
o Cube
v -0.790948 0.790948 0.790948
v -0.790948 0.790948 -0.790948
v -0.790948 -0.790948 0.790948
v 0.790948 0.790948 -0.790948
v -0.790948 -0.790948 -0.790948
v 0.790948 0.790948 0.790948
v 0.790948 -0.790948 -0.790948
v 0.790948 -0.790948 0.790948
vt 0.667506 0.499835
vt 0.667506 -0.000083
vt 1.000784 0.499835
vt -0.000028 0.499917
vt 0.333250 0.499917
vt -0.000028 0.999835
vt 0.666744 -0.000083
vt 0.666744 0.499835
vt 0.333465 -0.000083
vt 0.666744 0.999835
vt 0.333465 0.999835
vt 0.666744 0.499917
vt -0.000028 0.499835
vt -0.000028 -0.000083
vt 0.333250 0.499835
vt 1.000784 0.999835
vt 0.667506 0.999835
vt 1.000784 0.499917
vt 1.000784 -0.000083
vt 0.333250 0.999835
vt 0.333466 0.499835
vt 0.333465 0.499917
vt 0.333250 -0.000083
vt 0.667506 0.499917
vn 0.000000 1.000000 0.000000
vn 0.000000 -1.000000 -0.000000
vn 0.000000 0.000000 -1.000000
vn -1.000000 0.000000 0.000000
vn 0.000000 -0.000000 1.000000
vn 1.000000 0.000000 0.000000
s off
f 2/1/1 1/2/1 4/3/1
f 5/4/2 7/5/2 3/6/2
f 4/7/3 7/8/3 2/9/3
f 2/10/4 5/11/4 1/12/4
f 1/13/5 3/14/5 6/15/5
f 6/16/6 8/17/6 4/18/6
f 1/2/1 6/19/1 4/3/1
f 7/5/2 8/20/2 3/6/2
f 7/8/3 5/21/3 2/9/3
f 5/11/4 3/22/4 1/12/4
f 3/14/5 8/23/5 6/15/5
f 8/17/6 7/24/6 4/18/6
